<?xml version="1.0" encoding="utf-8"?>
<svg version="1.1" xmlns="http://www.w3.org/2000/svg" width="828" height="330" xmlns:bx="https://boxy-svg.com">
  <rect x="0.086" y="-0.15" width="330" height="330" style="fill: rgb(193, 255, 114); fill-rule: nonzero; paint-order: fill;"/>
  <g id="icons_1_" transform="matrix(1, 0, 0, 1, 70.499337, -28.961907)">
    <g>
      <g id="row2_1_" transform="matrix(1, 0, 0, 1, -370.037542, 49.729203)">
        <g id="_x36__3_" class="st0" style="display: none;">
          <g id="transparent" class="st1">
            <g>
              <path class="st2" d="M64,0.3C28.7,0.3,0,28.8,0,64c0,35.2,28.7,63.7,64,63.7c35.3,0,64-28.5,64-63.7C128,28.8,99.3,0.3,64,0.3z M64,121.3C32.2,121.3,6.4,95.7,6.4,64C6.4,32.3,32.2,6.7,64,6.7c12.1,0,23.4,3.7,32.7,10.1c13.7,9.4,23.1,24.5,24.7,41.8 c0,0.5,0.1,9.8,0,10.7C118.7,98.5,94,121.3,64,121.3z M60.8,32.2c-14.5,0-19.1,13.3-19.2,25.5h9.6c-0.2-8.8,0.7-15.9,9.6-15.9 c6.4,0,9.6,2.7,9.6,9.6c0,4.4-3.4,6.6-6.4,9.6c-6.2,6-5.7,10.4-6,18.7h8.4c0.3-7.5,0.2-7.3,6.4-13.9c4.2-4.1,7.1-8.2,7.1-14.5 C80,41.2,74.6,32.2,60.8,32.2z M64.1,86.3c-3.6,0-6.4,2.9-6.4,6.4c0,3.5,2.9,6.4,6.4,6.4c3.6,0,6.4-2.9,6.4-6.4 C70.5,89.1,67.6,86.3,64.1,86.3z" style="fill: rgb(10, 10, 10);"/>
            </g>
          </g>
        </g>
        <g id="_x35__3_" class="st0" style="display: none;">
          <g id="down_1_" class="st1">
            <g>
              <path class="st2" d="M64,0.3C28.7,0.3,0,28.8,0,64s28.7,63.7,64,63.7c35.3,0,64-28.5,64-63.7S99.3,0.3,64,0.3z M64,121.3 C32.2,121.3,6.4,95.7,6.4,64C6.4,32.3,32.2,6.7,64,6.7c31.8,0,57.6,25.7,57.6,57.3C121.6,95.7,95.8,121.3,64,121.3z M85.7,58.1 L70.4,70.3V41.7c0-2.2-2.3-3.2-4.4-3.2H62c-2.2,0-3.9,1.8-3.9,3.9v28.4L42.3,58.1c-2.2,0-3.9,1.8-3.9,3.9v7.1L64,95.8l25.6-26.7 V62C89.6,59.8,87.8,58.1,85.7,58.1z" style="fill: rgb(10, 10, 10);"/>
            </g>
          </g>
        </g>
        <g id="_x34__3_" class="st0" style="display: none;">
          <g id="up" class="st1">
            <g>
              <path class="st2" d="M64,0.3C28.7,0.3,0,28.8,0,64s28.7,63.7,64,63.7c35.3,0,64-28.5,64-63.7S99.3,0.3,64,0.3z M64,121.3 C32.2,121.3,6.4,95.7,6.4,64C6.4,32.3,32.2,6.7,64,6.7c31.8,0,57.6,25.7,57.6,57.3C121.6,95.7,95.8,121.3,64,121.3z M38.4,58.9 V66c0,2.2,1.8,3.9,3.9,3.9l15.3-12.2v28.7c0,2.2,2.3,3.2,4.4,3.2H66c2.2,0,3.9-1.8,3.9-3.9V57.2l15.8,12.7 c2.2,0,3.9-1.8,3.9-3.9v-7.1L64,32.2L38.4,58.9z" style="fill: rgb(10, 10, 10);"/>
            </g>
          </g>
        </g>
        <g id="_x33__3_" class="st0" style="display: none;">
          <g id="right_1_" class="st1">
            <g>
              <path class="st2" d="M64,0.3C28.8,0.3,0.3,28.8,0.3,64c0,35.2,28.5,63.7,63.7,63.7c35.2,0,63.7-28.5,63.7-63.7 C127.7,28.8,99.2,0.3,64,0.3z M64,121.3C32.3,121.3,6.7,95.7,6.7,64C6.7,32.3,32.3,6.7,64,6.7c31.7,0,57.3,25.7,57.3,57.3 C121.3,95.7,95.7,121.3,64,121.3z M62,38.5c-2.2,0-3.9,1.8-3.9,3.9l12.2,15.2H41.7c-2.2,0-3.2,2.2-3.2,4.4V66 c0,2.2,1.8,3.9,3.9,3.9h28.4L58.1,85.6c0,2.2,1.8,3.9,3.9,3.9h7.1L95.8,64L69.1,38.5H62z" style="fill: rgb(10, 10, 10);"/>
            </g>
          </g>
        </g>
        <g id="_x32__4_">
          <g id="left_1_">
            <g>
              <path class="st2" d="M 531.192 127.554 L 456.192 127.554 L 488.223 87.966 C 488.223 82.241 483.535 77.816 478.068 77.816 L 459.578 77.816 L 389.527 144.222 L 459.318 210.627 L 478.068 210.627 C 483.797 210.627 488.223 205.939 488.223 200.472 L 454.89 159.587 L 529.369 159.587 C 535.098 159.587 539.527 154.899 539.527 149.429 L 539.527 139.012 C 539.527 133.542 536.922 127.554 531.192 127.554 Z" style="fill: rgb(10, 10, 10); transform-box: fill-box; transform-origin: 50% 50%;" transform="matrix(-0.707107, 0.707107, -0.707107, -0.707107, 0.000003, 0.000011)"/>
            </g>
          </g>
        </g>
        <g id="_x31__4_" class="st0" style="display: none;">
          <g id="left_3_" class="st1">
            <g>
              <path class="st2" d="M64,0.3C28.7,0.3,0,28.8,0,64c0,35.2,28.7,63.7,64,63.7c35.3,0,64-28.5,64-63.7C128,28.8,99.3,0.3,64,0.3z M64,121.3C32.2,121.3,6.4,95.7,6.4,64C6.4,32.3,32.2,6.7,64,6.7c31.8,0,57.6,25.7,57.6,57.3C121.6,95.7,95.8,121.3,64,121.3z M65.3,38.5L41.6,64l23.6,25.5h13.5L54.4,64l24.4-25.5H65.3z" style="fill: rgb(10, 10, 10);"/>
            </g>
          </g>
        </g>
      </g>
    </g>
    <g id="row1_1_" class="st0" style="display: none;" transform="matrix(1, 0, 0, 1, 164.122088, 90.22101)">
      <g id="_x36__2_" class="st1">
        <g id="plus_transparent">
          <g>
            <path class="st2" d="M64,0.3C28.7,0.3,0,28.8,0,64c0,35.2,28.7,63.7,64,63.7c35.3,0,64-28.5,64-63.7C128,28.8,99.3,0.3,64,0.3z M64,121.3C32.2,121.3,6.4,95.7,6.4,64C6.4,32.3,32.2,6.7,64,6.7c31.8,0,57.6,25.7,57.6,57.3C121.6,95.7,95.8,121.3,64,121.3z M84.8,60.8H70.4V46.5c0-2.6-2.2-4.8-4.8-4.8c-2.7,0-4.8,2.1-4.8,4.8v14.3H46.4c-2.7,0-4.8,2.1-4.8,4.8c0,2.6,2.1,4.8,4.8,4.8 h14.4v14.3c0,2.6,2.1,4.8,4.8,4.8c2.6,0,4.8-2.1,4.8-4.8V70.4h14.4c2.6,0,4.8-2.1,4.8-4.8C89.6,63,87.5,60.8,84.8,60.8z" style="fill: rgb(10, 10, 10);"/>
          </g>
        </g>
      </g>
      <g id="_x35__2_" class="st1">
        <g id="error_transparent_copy">
          <g>
            <path class="st2" d="M64,0.3C28.7,0.3,0,28.8,0,64c0,35.2,28.7,63.7,64,63.7c35.3,0,64-28.5,64-63.7C128,28.8,99.3,0.3,64,0.3z M64,121.3C32.2,121.3,6.4,95.7,6.4,64C6.4,32.3,32.2,6.7,64,6.7c31.8,0,57.6,25.7,57.6,57.3C121.6,95.7,95.8,121.3,64,121.3z M87.2,44.5c-0.9-0.9-2.3-0.9-3.2,0L55.2,73.2L41.4,59.5c-0.9-0.9-2.3-0.9-3.2,0l-4.8,4.8c-0.9,0.9-0.9,2.3,0,3.2l15.3,15.3 c0,0,0,0,0,0l3.3,3.3l0.8,0.8l0,0l0.7,0.7c0.9,0.9,2.3,0.9,3.2,0L92,52.5c0.9-0.9,0.9-2.3,0-3.2L87.2,44.5z" style="fill: rgb(10, 10, 10);"/>
          </g>
        </g>
      </g>
      <g id="_x34__2_" class="st1">
        <g id="error_transparent">
          <g>
            <path class="st2" d="M64,0.3C28.7,0.3,0,28.8,0,64c0,35.2,28.7,63.7,64,63.7c35.3,0,64-28.5,64-63.7C128,28.8,99.3,0.3,64,0.3z M64,121.3C32.2,121.3,6.4,95.7,6.4,64C6.4,32.3,32.2,6.7,64,6.7c31.8,0,57.6,25.7,57.6,57.3C121.6,95.7,95.8,121.3,64,121.3z M85.9,48.1L81,43.3c-0.9-0.9-2.3-0.9-3.2,0L64,57L50.2,43.3c-0.9-0.9-2.3-0.9-3.2,0l-4.9,4.8c-0.9,0.9-0.9,2.3,0,3.2L55.9,65 L42.1,78.8c-0.9,0.9-0.9,2.3,0,3.2l4.9,4.8c0.9,0.9,2.3,0.9,3.2,0L64,73.1l13.8,13.7c0.9,0.9,2.3,0.9,3.2,0l4.9-4.8 c0.9-0.9,0.9-2.3,0-3.2L72.1,65l13.8-13.7C86.8,50.4,86.8,49,85.9,48.1z" style="fill: rgb(10, 10, 10);"/>
          </g>
        </g>
      </g>
      <g id="_x33__2_" class="st1">
        <g id="alert_transparent">
          <g>
            <path class="st2" d="M64,32.2c-4.4,0-8,3.3-8,7.3v24.8c0,4.1,3.6,7.3,8,7.3s8-3.3,8-7.3V39.5C72,35.4,68.4,32.2,64,32.2z M64,0.3C28.7,0.3,0,28.8,0,64c0,35.2,28.7,63.7,64,63.7c35.3,0,64-28.5,64-63.7C128,28.8,99.3,0.3,64,0.3z M64,121.3 C32.2,121.3,6.4,95.7,6.4,64C6.4,32.3,32.2,6.7,64,6.7c31.8,0,57.6,25.7,57.6,57.3C121.6,95.7,95.8,121.3,64,121.3z M64,81.2 c-4.4,0-8,3.3-8,7.3s3.6,7.3,8,7.3s8-3.3,8-7.3S68.4,81.2,64,81.2z" style="fill: rgb(10, 10, 10);"/>
          </g>
        </g>
      </g>
      <g id="_x32__3_" class="st1">
        <g id="minus_transparent">
          <g>
            <path class="st2" d="M64,0.3C28.7,0.3,0,28.8,0,64c0,35.2,28.7,63.7,64,63.7c35.3,0,64-28.5,64-63.7C128,28.8,99.3,0.3,64,0.3z M64,121.3C32.2,121.3,6.4,95.7,6.4,64C6.4,32.3,32.2,6.7,64,6.7c31.8,0,57.6,25.7,57.6,57.3C121.6,95.7,95.8,121.3,64,121.3z M81.6,60.8H43.2c-2.7,0-4.8,2.1-4.8,4.8c0,2.6,2.2,4.8,4.8,4.8h38.4c2.6,0,4.8-2.1,4.8-4.8C86.4,63,84.3,60.8,81.6,60.8z" style="fill: rgb(10, 10, 10);"/>
          </g>
        </g>
      </g>
      <g id="_x31__3_" class="st1">
        <g id="_x32__2_">
          <g>
            <path class="st2" d="M64,0C28.7,0,0,28.7,0,64s28.7,64,64,64c35.3,0,64-28.7,64-64S99.3,0,64,0z M64,121.6 C32.2,121.6,6.4,95.8,6.4,64S32.2,6.4,64,6.4c31.8,0,57.6,25.8,57.6,57.6S95.8,121.6,64,121.6z M49.2,38.4L73.6,64L49.2,89.6 h13.5L86.4,64L62.7,38.4H49.2z" style="fill: rgb(10, 10, 10);"/>
          </g>
        </g>
      </g>
    </g>
  </g>
  <g transform="matrix(1, 0, 0, 1, 1.664066, 29.698956)">
  <text style="font-family: Arial; font-size: 131.45px; font-weight: 700; text-transform: uppercase; white-space: pre; fill: #fff;" transform="matrix(1.177754, 0, 0, 1.217195, -89.681558, 25.69615)" x="407.285" y="117.558">APEX</text>
  <text style="font-family: Arial; font-size: 60px; font-weight: 500; white-space: pre; fill: #fff;" x="390" y="253.789">FINANCE</text>
  </g>
  <defs>
    <bx:export>
      <bx:file format="svg"/>
    </bx:export>
  </defs>
</svg>